PathFileType  4	(X/Y/Z) C:\simtk\uwmodels\fbknee\data\invivovalid2\exp\aclc01\Files_W_HJCs
DataRate	CameraRate	NumFrames	NumMarkers	Units	OrigDataRate	OrigDataStartFrame	OrigNumFrames
  200.0      200.0        5         42 mm      200.0         65       515
Frame#	Time            R.Shoulder                       R.Clavicle                       R.Bicep                          R.Elbow                          R.Forearm                        R.Wrist                          L.Shoulder                       L.Clavicle                       L.Scapula                        L.Bicep                          L.Elbow                          L.Forearm                        L.Wrist                          R.ASIS                           R.PSIS                           S2                               L.PSIS                           L.ASIS                           R.TH1                            R.TH2                            R.TH3                            R.Knee                           R.SH1                            R.SH2                            R.SH3                            R.SH4                            R.Ankle                          R.Heel                           R.MT5                            L.TH1                            L.TH2                            L.TH3                            L.TH4                            L.Knee                           L.SH1                            L.SH2                            L.SH3                            L.Ankle                          L.Heel                           L.MT5                            R_HJC                            L_HJC                  
                     X1         Y1         Z1         X2         Y2         Z2         X3         Y3         Z3         X4         Y4         Z4         X5         Y5         Z5         X6         Y6         Z6         X7         Y7         Z7         X8         Y8         Z8         X9         Y9         Z9         X10         Y10         Z10         X11         Y11         Z11         X12         Y12         Z12         X13         Y13         Z13         X14         Y14         Z14         X15         Y15         Z15         X16         Y16         Z16         X17         Y17         Z17         X18         Y18         Z18         X19         Y19         Z19         X20         Y20         Z20         X21         Y21         Z21         X22         Y22         Z22         X23         Y23         Z23         X24         Y24         Z24         X25         Y25         Z25         X26         Y26         Z26         X27         Y27         Z27         X28         Y28         Z28         X29         Y29         Z29         X30         Y30         Z30         X31         Y31         Z31         X32         Y32         Z32         X33         Y33         Z33         X34         Y34         Z34         X35         Y35         Z35         X36         Y36         Z36         X37         Y37         Z37         X38         Y38         Z38         X39         Y39         Z39         X40         Y40         Z40         X41         Y41         Z41         X42         Y42         Z42         

	65	0.32000	-1266.991	19.950	1297.654	-1200.247	165.923	1283.844	-1247.582	10.723	1069.683	-1358.206	-57.669	1000.138	-1267.818	-71.061	900.315	-1307.589	-126.879	797.664	-1213.109	393.638	1295.555	-1185.747	221.578	1279.769	-1361.109	311.248	1292.759	-1138.412	390.669	1144.815	-1123.035	487.577	1016.391	-1029.649	422.846	1020.532	-935.889	431.379	960.232	-1162.196	74.449	870.438	-1406.857	150.159	904.521	-1413.803	201.980	900.380	-1403.813	259.162	913.513	-1173.930	339.946	851.821	-1128.919	19.006	684.120	-1268.271	33.806	619.584	-1233.026	45.904	554.117	-1121.017	48.227	453.852	-1056.100	29.216	334.159	-1040.705	43.470	262.188	-1165.195	71.920	318.423	-1151.015	76.384	244.922	-1043.308	69.536	71.788	-1101.384	129.133	41.859	-925.103	35.260	24.903	-1262.211	377.577	584.682	-1268.235	354.688	505.560	-1410.587	366.505	603.963	-1424.538	352.397	529.951	-1398.792	370.420	445.370	-1418.253	376.764	339.932	-1504.625	367.485	417.734	-1556.346	369.039	358.491	-1648.342	360.438	128.726	-1745.547	326.382	146.187	-1597.712	363.979	27.689	-1256.079	107.934	813.129	-1265.899	301.193	779.912
	66	0.32500	-1260.201	18.551	1298.736	-1192.701	163.968	1285.354	-1238.940	6.714	1069.846	-1350.625	-59.310	1001.030	-1259.308	-70.978	901.318	-1299.071	-127.046	798.231	-1205.794	392.262	1296.610	-1178.736	220.077	1281.516	-1354.016	310.394	1293.234	-1132.431	389.722	1144.732	-1117.999	486.334	1015.049	-1025.959	421.215	1018.574	-932.595	430.823	957.244	-1155.336	72.328	872.112	-1399.065	149.691	905.286	-1406.204	201.475	900.841	-1396.031	258.073	913.176	-1165.984	338.082	852.846	-1120.223	19.294	686.681	-1259.473	30.038	620.979	-1224.192	43.500	556.150	-1111.716	46.746	456.209	-1051.043	28.517	334.194	-1036.548	42.606	262.380	-1160.421	69.828	319.808	-1146.794	75.478	245.530	-1043.308	69.536	71.788	-1101.384	129.133	41.859	-925.166	35.158	24.856	-1252.046	377.128	584.875	-1258.037	355.097	505.502	-1400.424	365.959	602.761	-1413.970	351.841	527.951	-1387.352	371.180	444.869	-1408.784	378.201	340.194	-1493.951	367.224	418.885	-1546.631	368.235	360.212	-1642.583	359.900	132.021	-1738.365	325.691	153.185	-1595.735	363.389	28.890	-1248.602	106.224	814.410	-1257.467	299.405	780.478
	67	0.33000	-1253.279	17.493	1299.482	-1184.969	163.314	1286.793	-1231.003	5.699	1070.719	-1342.048	-59.128	1000.903	-1251.316	-71.672	902.146	-1288.761	-127.430	798.679	-1199.070	391.296	1297.414	-1170.977	219.281	1282.940	-1347.227	308.361	1294.379	-1126.110	389.272	1144.607	-1114.302	484.387	1014.930	-1022.072	419.881	1015.938	-929.408	429.567	954.062	-1148.460	71.197	873.848	-1391.836	149.154	906.407	-1398.457	200.950	901.679	-1388.502	257.958	913.772	-1157.927	336.502	853.187	-1112.025	18.860	688.872	-1251.510	27.625	624.310	-1215.866	40.769	558.491	-1102.993	45.884	457.422	-1046.222	27.755	334.206	-1033.290	42.064	262.209	-1156.492	68.214	321.598	-1143.568	73.842	247.090	-1043.043	69.448	71.803	-1101.384	129.133	41.859	-925.145	34.994	24.899	-1242.696	377.021	585.337	-1246.951	355.699	505.904	-1390.684	365.350	601.600	-1403.583	351.836	526.388	-1376.499	371.504	444.592	-1399.881	379.086	340.369	-1479.769	363.124	417.496	-1536.781	367.629	362.815	-1636.469	360.307	135.169	-1730.932	324.244	161.561	-1594.671	362.948	29.310	-1241.390	104.872	815.888	-1249.563	297.905	780.952
	68	0.33500	-1246.355	16.320	1300.584	-1177.658	162.035	1288.237	-1223.358	4.717	1071.943	-1334.369	-60.356	1001.928	-1242.865	-72.006	902.716	-1280.890	-127.316	798.579	-1191.986	390.300	1298.177	-1161.259	218.111	1283.644	-1340.254	307.016	1295.169	-1121.193	388.782	1144.798	-1111.458	483.385	1014.724	-1017.766	418.253	1013.980	-926.555	428.511	950.826	-1140.799	69.794	875.873	-1384.827	148.503	907.542	-1391.076	200.333	902.312	-1381.032	257.511	914.104	-1150.329	334.569	853.169	-1105.103	18.295	691.588	-1244.170	24.707	625.436	-1208.337	38.193	560.329	-1095.942	44.682	458.689	-1041.425	26.960	333.945	-1029.363	41.539	261.699	-1151.959	66.563	323.129	-1140.775	71.917	248.758	-1042.915	69.495	71.927	-1100.250	127.101	43.174	-924.603	34.534	24.300	-1232.311	376.683	585.505	-1236.234	356.207	505.862	-1380.604	364.858	599.878	-1392.516	351.731	525.398	-1364.380	372.551	443.148	-1389.363	380.468	340.789	-1468.133	362.349	418.103	-1526.188	366.751	364.740	-1630.035	360.414	139.673	-1721.934	324.019	169.126	-1593.195	363.031	31.431	-1234.067	103.155	817.581	-1241.788	295.918	781.084
	69	0.34000	-1239.364	15.459	1301.736	-1172.018	160.273	1288.936	-1216.292	3.827	1073.243	-1326.272	-60.524	1002.003	-1234.618	-72.425	904.040	-1271.584	-127.699	800.254	-1185.389	389.452	1299.634	-1154.207	217.036	1285.059	-1332.963	305.967	1295.639	-1114.584	388.939	1145.157	-1107.896	481.287	1013.338	-1014.393	417.821	1011.882	-923.448	427.792	947.730	-1133.648	68.699	877.664	-1377.543	148.244	908.734	-1384.818	199.987	903.722	-1373.408	257.142	914.509	-1142.832	333.013	854.591	-1097.374	17.501	693.397	-1235.584	22.443	627.098	-1201.164	36.170	561.856	-1090.761	42.587	459.882	-1036.307	26.139	334.364	-1026.260	40.524	262.046	-1147.530	65.131	324.689	-1137.087	70.839	250.368	-1042.415	68.887	72.089	-1099.878	127.069	42.829	-924.540	34.090	24.122	-1221.872	377.527	585.784	-1224.930	357.266	505.811	-1370.426	364.527	598.788	-1381.481	351.659	523.565	-1353.567	373.098	443.005	-1379.633	380.340	339.563	-1456.909	362.592	420.936	-1515.144	366.249	366.633	-1622.368	360.414	143.556	-1713.122	322.887	177.496	-1591.222	363.048	34.111	-1227.015	102.083	819.214	-1234.095	294.772	782.202
